<?xml version="1.0" encoding="UTF-8" standalone="no"?>
<svg
   id="Layer_1"
   data-name="Layer 1"
   version="1.1"
   viewBox="0 0 1323.9 298.60002"
   sodipodi:docname="onshape.svg"
   width="1323.9"
   height="298.60001"
   inkscape:version="1.4.4 (dcaf3e7, 2026-05-05)"
   xmlns:inkscape="http://www.inkscape.org/namespaces/inkscape"
   xmlns:sodipodi="http://sodipodi.sourceforge.net/DTD/sodipodi-0.dtd"
   xmlns="http://www.w3.org/2000/svg"
   xmlns:svg="http://www.w3.org/2000/svg">
  <sodipodi:namedview
     id="namedview14"
     pagecolor="#505050"
     bordercolor="#eeeeee"
     borderopacity="1"
     inkscape:showpageshadow="0"
     inkscape:pageopacity="0"
     inkscape:pagecheckerboard="0"
     inkscape:deskcolor="#505050"
     inkscape:zoom="0.10613884"
     inkscape:cx="1135.3055"
     inkscape:cy="-1625.2298"
     inkscape:window-width="1920"
     inkscape:window-height="1057"
     inkscape:window-x="-8"
     inkscape:window-y="-8"
     inkscape:window-maximized="1"
     inkscape:current-layer="Layer_1" />
  <defs
     id="defs1">
    <style
       id="style1">
      .cls-1 {
        fill: #3d4647;
      }

      .cls-1, .cls-2 {
        stroke-width: 0px;
      }

      .cls-2 {
        fill: #40aa1d;
      }
    </style>
  </defs>
  <g
     id="g9"
     transform="translate(-380.1,-179.5)">
    <path
       class="cls-1"
       d="m 1685.4,271.8 c 2.6,0 5,0.5 7.2,1.5 2.3,1 4.2,2.3 5.9,4 1.7,1.7 3,3.7 4,5.9 1,2.3 1.5,4.7 1.5,7.2 0,2.5 -0.5,5 -1.5,7.2 -1,2.2 -2.3,4.2 -4,5.9 -1.7,1.7 -3.7,3 -5.9,4 -2.3,1 -4.7,1.5 -7.2,1.5 -2.5,0 -5,-0.5 -7.2,-1.5 -2.2,-1 -4.2,-2.3 -5.9,-4 -1.7,-1.7 -3,-3.6 -4,-5.9 -1,-2.2 -1.5,-4.6 -1.5,-7.2 0,-2.6 0.5,-5 1.5,-7.2 1,-2.3 2.3,-4.2 4,-5.9 1.7,-1.7 3.6,-3 5.9,-4 2.2,-1 4.6,-1.5 7.2,-1.5 z m 0,34.4 c 4.4,0 8.2,-1.6 11.3,-4.7 3.1,-3.1 2.6,-3.1 3.4,-5.1 0.8,-1.9 1.2,-4 1.2,-6.2 0,-2.2 -0.4,-4.2 -1.2,-6.2 -0.8,-1.9 -2,-3.6 -3.4,-5.1 -3.1,-3.1 -6.9,-4.7 -11.3,-4.7 -4.4,0 -8.2,1.6 -11.2,4.7 -3.1,3.1 -4.7,6.9 -4.7,11.3 0,4.4 0.4,4.2 1.2,6.2 0.8,1.9 2,3.6 3.4,5.1 3,3.1 6.8,4.7 11.2,4.7 z m 9.1,-20.1 c 0,1.2 -0.4,2.3 -1.1,3.3 -0.7,1 -1.7,1.6 -3,2 2,0.6 3.2,2.2 3.6,4.9 0.1,0.7 0.2,1.3 0.2,1.8 v 2.5 h -3.7 v -2.1 c 0,-1.6 -0.2,-2.7 -0.5,-3.4 -0.7,-1.4 -1.9,-2.2 -3.7,-2.2 h -5.3 v 7.6 h -3.8 v -20.7 h 8.8 c 2.9,0 5.1,0.6 6.4,1.7 1.3,1.1 2,2.6 2,4.4 z m -8.7,3.8 c 1.5,0 2.7,-0.3 3.6,-0.9 0.9,-0.6 1.4,-1.4 1.4,-2.4 0,-1 -0.4,-1.9 -1.1,-2.5 -0.7,-0.6 -2.1,-0.9 -4,-0.9 h -4.6 v 6.7 z"
       id="path1" />
    <g
       id="g8">
      <path
         class="cls-1"
         d="m 813.7,269.9 c 17.3,0 31.4,5.8 42.2,17.4 10.2,11.1 15.3,25.3 15.3,42.4 0,17.1 -5.1,31.3 -15.3,42.4 -10.8,11.6 -24.9,17.4 -42.2,17.4 -17.3,0 -31.4,-5.8 -42.2,-17.4 -10.2,-11.1 -15.3,-25.3 -15.3,-42.4 0,-17.1 5.1,-31.3 15.3,-42.4 10.8,-11.6 24.9,-17.4 42.2,-17.4 z m 0,103.9 c 12.5,0 22.4,-4.3 29.7,-13 7,-8.2 10.4,-18.6 10.4,-31.1 0,-12.5 -3.5,-22.9 -10.4,-31.1 -7.3,-8.7 -17.2,-13 -29.7,-13 -12.5,0 -22.4,4.3 -29.7,13 -7,8.2 -10.4,18.6 -10.4,31.1 0,12.5 3.5,22.9 10.4,31.1 7.3,8.7 17.2,13 29.7,13 z"
         id="path2" />
      <path
         class="cls-1"
         d="m 911.5,271.7 v 18.1 c 4.2,-5.6 9.3,-10.3 15.3,-14.1 6,-3.9 12.9,-5.8 20.6,-5.8 7.7,0 14.4,1.1 19.9,3.2 5.6,2.2 10.4,5.4 14.6,9.7 9.6,9.4 14.4,21.9 14.4,37.3 v 67.5 h -17.4 v -67 c 0,-10.7 -3,-19.2 -9,-25.5 -6,-6.3 -13.8,-9.5 -23.4,-9.5 -9.6,0 -18,3.2 -24.8,9.7 -6.8,6.6 -10.2,15.2 -10.2,25.5 v 66.8 H 894.1 V 271.7 Z"
         id="path3" />
      <path
         class="cls-1"
         d="m 1093.6,302.8 c -1.5,-12.1 -11.2,-18.1 -29.1,-18.1 -17.9,0 -26.8,5.6 -26.8,16.7 0,11.1 1.9,8.2 5.7,10.6 3.8,2.4 8.5,4.4 14.3,5.9 5.7,1.5 11.9,3 18.7,4.3 6.7,1.3 12.9,3.2 18.7,5.6 5.7,2.4 10.5,5.7 14.3,9.9 3.8,4.2 5.7,9.9 5.7,17.2 0,11.3 -4.3,19.9 -12.8,25.9 -8.5,6 -20,8.9 -34.6,8.9 -14.6,0 -27.8,-3.9 -36.9,-11.6 -8.4,-6.8 -12.8,-15.7 -13.5,-26.7 h 18.1 c 1.1,10.7 7.1,17.9 18.1,21.6 4,1.2 8,1.9 11.9,1.9 3.9,0 7.6,-0.2 11,-0.7 3.4,-0.5 6.7,-1.3 10,-2.6 7.4,-2.9 11.1,-8 11.1,-15.1 0,-7.1 -1.9,-8.5 -5.7,-11 -3.8,-2.6 -8.5,-4.6 -14.3,-6.3 -5.7,-1.6 -11.9,-3.1 -18.7,-4.4 -6.7,-1.3 -13,-3.1 -18.7,-5.4 -5.7,-2.3 -10.5,-5.5 -14.3,-9.5 -3.8,-4 -5.7,-9.6 -5.7,-16.7 0,-10.5 3.8,-18.7 11.5,-24.5 7.7,-5.8 19,-8.7 34,-8.7 15,0 25.4,3.4 33.6,10.2 6.8,5.7 10.7,13.3 11.8,22.7 h -17.6 z"
         id="path4" />
      <path
         class="cls-1"
         d="m 1154.6,225.4 v 64.5 c 4.2,-5.6 9.3,-10.3 15.3,-14.1 6,-3.9 12.9,-5.8 20.6,-5.8 7.7,0 14.4,1.1 19.9,3.2 5.6,2.2 10.4,5.4 14.6,9.7 9.6,9.4 14.4,21.9 14.4,37.3 v 67.5 H 1222 v -67 c 0,-10.7 -3,-19.2 -9,-25.5 -6,-6.3 -13.8,-9.5 -23.4,-9.5 -9.6,0 -18,3.2 -24.8,9.7 -6.8,6.6 -10.2,15.2 -10.2,25.5 v 66.8 h -17.4 V 225.4 Z"
         id="path5" />
      <path
         class="cls-1"
         d="m 1358.9,369.1 c -9.3,13.6 -23.1,20.4 -41.5,20.4 -18.4,0 -30.3,-5.8 -40.8,-17.4 -10.2,-11.4 -15.3,-25.6 -15.3,-42.4 0,-16.8 5.1,-31 15.3,-42.4 10.5,-11.6 24.5,-17.4 42,-17.4 17.5,0 30.9,6.9 40.3,20.6 v -18.8 h 17.4 v 115.9 h -17.4 V 369 Z m -39.2,4.7 c 12.5,0 22.4,-4.3 29.7,-13 7,-8.2 10.4,-18.6 10.4,-31.1 0,-12.5 -3.5,-22.9 -10.4,-31.1 -7.3,-8.7 -17.2,-13 -29.7,-13 -12.5,0 -22.4,4.3 -30.1,13 -7.3,8.2 -10.9,18.6 -10.9,31.1 0,12.5 3.6,22.9 10.9,31.1 7.7,8.7 17.8,13 30.1,13 z"
         id="path6" />
      <path
         class="cls-1"
         d="m 1423.8,290.3 c 9.3,-13.6 23.1,-20.4 41.5,-20.4 18.4,0 30.2,5.8 40.6,17.4 10.4,11.4 15.5,25.6 15.5,42.4 0,16.8 -5.2,31 -15.5,42.4 -10.4,11.6 -24.3,17.4 -41.7,17.4 -17.4,0 -30.9,-6.9 -40.4,-20.6 v 64.7 h -17.4 V 271.7 h 17.4 z m 39.2,-4.7 c -12.5,0 -22.4,4.3 -29.7,13 -7,8.2 -10.4,18.6 -10.4,31.1 0,12.5 3.5,22.9 10.4,31.1 7.3,8.7 17.2,13 29.7,13 12.5,0 22.4,-4.3 30.1,-13 7.3,-8.2 10.9,-18.6 10.9,-31.1 0,-12.5 -3.6,-22.9 -10.9,-31.1 -7.7,-8.7 -17.8,-13 -30.1,-13 z"
         id="path7" />
      <path
         class="cls-1"
         d="m 1595.9,373.8 c 15.6,0 26.8,-6.5 33.6,-19.5 h 19 c -4,10.5 -10.4,19 -19.1,25.5 -8.7,6.5 -20,9.7 -33.7,9.7 -13.7,0 -31.7,-5.8 -42.7,-17.4 -10.7,-11.3 -16,-25.4 -16,-42.4 0,-17 5.1,-31.3 15.3,-42.4 10.8,-11.6 24.9,-17.4 42.2,-17.4 17.3,0 31.4,5.8 42.2,17.4 10.2,11.1 15.3,25.3 15.3,42.4 v 7 h -97.2 c 1.2,10.7 5.5,19.5 12.8,26.4 7.4,7.1 16.8,10.7 28.3,10.7 z m -1.4,-88.2 c -10.7,0 -19.6,3.3 -26.9,10 -6.8,6.3 -11,14.6 -12.5,24.8 h 78.8 c -1.5,-10.2 -5.7,-18.5 -12.5,-24.8 -7.3,-6.6 -16.2,-10 -26.9,-10 z"
         id="path8" />
    </g>
  </g>
  <polygon
     class="cls-2"
     points="380.1,253.9 380.1,320.5 431.2,350.8 431.2,282 558.7,208.2 508.9,179.5 "
     id="polygon9"
     transform="translate(-380.1,-179.5)" />
  <polygon
     class="cls-2"
     points="509.6,478.1 566.3,445.5 566.3,382.9 508.9,420.3 380.1,342.4 380.1,403.4 "
     id="polygon10"
     transform="translate(-380.1,-179.5)" />
  <polygon
     class="cls-2"
     points="578.5,219.7 639,254.3 639,403.4 585.4,434.3 585.5,285.3 525.3,250.6 "
     id="polygon11"
     transform="translate(-380.1,-179.5)" />
  <polygon
     class="cls-1"
     points="450.2,294.3 450.2,323.5 472.5,336.7 472.5,306.7 528.6,274.2 506.8,261.6 "
     id="polygon12"
     transform="translate(-380.1,-179.5)" />
  <polygon
     class="cls-1"
     points="508.9,397.3 533.1,382.4 533.1,355.6 508.9,371 450.2,335.3 450.2,362 "
     id="polygon13"
     transform="translate(-380.1,-179.5)" />
  <polygon
     class="cls-1"
     points="539.5,280.5 566.3,295.9 566.3,361.4 542.8,376.2 542.8,309.7 516,294.2 "
     id="polygon14"
     transform="translate(-380.1,-179.5)" />
</svg>
